# xmcd
#
# Track frame offsets: 
#        150
#        21417
#        43274
#        61169
#        86592
#        107382
#        126844
#        154077
#        178139
#        198357
#        227927
#        245479
#        262017
#
# Disc length: 3791 seconds
#
# Revision: 0
# Processed by: cddbd v1.5.2PL0 Copyright (c) Steve Scherf et al.
# Submitted via: ExactAudioCopyFreeDBPlugin 1.0
#
DISCID=b30ecd0d
DTITLE=The Hamsters - Open All Hours
DYEAR=2004
DGENRE=Blues/Rock
TTITLE0=Just Came Back
TTITLE1=My Future Ex-Wife
TTITLE2=Taxi Driver
TTITLE3=A Thing Called Love
TTITLE4=Brother Doctor, Sister Nurse
TTITLE5=Lucky In Love
TTITLE6=Love Don't Bother Me
TTITLE7=Burning The Church House Down
TTITLE8=Wouldn't Lay My Guitar Down
TTITLE9=Somebody's Leaving Somebody
TTITLE10=Check Up From The Neck Up
TTITLE11=Switchboard Susan
TTITLE12=The Unforgiven
EXTD=
EXTT0=
EXTT1=
EXTT2=
EXTT3=
EXTT4=
EXTT5=
EXTT6=
EXTT7=
EXTT8=
EXTT9=
EXTT10=
EXTT11=
EXTT12=
PLAYORDER=
